# xmcd
#
# Track frame offsets:
#	150
#	15864
#	32859
#	44772
#	61673
#	72795
#	87932
#	99056
#	110809
#	124290
#	140979
#	154701
#	167268
#	180431
#	194390
#	204889
#	217363
#	230942
#
# Disc length: 3201 seconds
#
# Revision: 1
# Processed by: cddbd v1.5.2PL0 Copyright (c) Steve Scherf et al.
# Submitted via: audiograbber 1.83.01
#
DISCID=fd0c7f12
DTITLE=Various Artist - Best Of Country Songs Disc 3
DYEAR=2011
DGENRE=Country
TTITLE0=Tom Paxton - I Can't Help But Wonder (Where I've Gone)
TTITLE1=Linda Ronstadt - I'm Gonna Love
TTITLE2=The Kendalls - Sweet Desire
TTITLE3=Conway Twitty and Jackie Bell - Don't Cry Joni
TTITLE4=Bill Anderson - I Get The Fever
TTITLE5=Brenda Lee and Nina Martinique - Silver Threads And Golden Needles
TTITLE6=Mel McDaniel - Stand Up
TTITLE7=Jerry Wallace - If You Leave Me Tonight
TTITLE8=The Oak Ridge Boys - Hide Thou Me
TTITLE9=Lee Freenwood - Somebody's Gonna Love You
TTITLE10=T.Graham Brown - I Tell It Like It Used To Be
TTITLE11=Jerry Lee Lewis - Only You
TTITLE12=Kenny Rogers - Ruby Don't Take Your Love To Town
TTITLE13=Wanda Jackson - Right Or Wrong
TTITLE14=Dave Dudley - Six Days On The Road
TTITLE15=Bobby Bare - Green Green Grass Of Home
TTITLE16=Carl Perkins - Turn Around
TTITLE17=Johnny Cash - New Mexico
EXTD=
EXTT0=
EXTT1=
EXTT2=
EXTT3=
EXTT4=
EXTT5=
EXTT6=
EXTT7=
EXTT8=
EXTT9=
EXTT10=
EXTT11=
EXTT12=
EXTT13=
EXTT14=
EXTT15=
EXTT16=
EXTT17=
PLAYORDER=
